<svg display="none" xmlns="http://www.w3.org/2000/svg">

  <symbol id="google-plus" viewBox="0 0 23 18">
    <g>
      <path d="M 5.835938 5.308594 C 7.054688 5.308594 8.15625 5.933594 8.789062 6.796875 L 10.285156 5.289062 C 9.390625 4.121094 7.667969 3.199219 5.835938 3.199219 C 2.628906 3.199219 0 5.792969 0 9 C 0 12.207031 2.628906 14.800781 5.835938 14.800781 C 8.492188 14.800781 10.730469 13.019531 11.414062 10.582031 C 11.5625 10.074219 11.636719 9.546875 11.636719 9 L 11.636719 8.472656 L 6.363281 8.472656 L 6.363281 10.582031 L 9.15625 10.582031 C 8.578125 11.828125 7.300781 12.691406 5.835938 12.691406 C 3.800781 12.691406 2.109375 11.035156 2.109375 9 C 2.109375 6.964844 3.800781 5.308594 5.835938 5.308594 Z M 5.835938 5.308594 "/>
      <path d="M 16.382812 6.363281 L 14.273438 6.363281 L 14.273438 7.945312 L 12.691406 7.945312 L 12.691406 10.054688 L 14.273438 10.054688 L 14.273438 11.636719 L 16.382812 11.636719 L 16.382812 10.054688 L 18 10.054688 L 18 7.945312 L 16.382812 7.945312 Z M 16.382812 6.363281 "/>
    </g>
  </symbol>

  <symbol id="instagram-icon" viewBox="0 0 18 18">
    <g >
      <path  d="M 12.769531 0 L 5.230469 0 C 2.34375 0 0 2.34375 0 5.230469 L 0 12.769531 C 0 15.65625 2.34375 18 5.230469 18 L 12.769531 18 C 15.65625 18 18 15.65625 18 12.769531 L 18 5.230469 C 18 2.34375 15.65625 0 12.769531 0 Z M 16.59375 12.769531 C 16.59375 14.878906 14.878906 16.59375 12.769531 16.59375 L 5.230469 16.59375 C 3.121094 16.59375 1.40625 14.878906 1.40625 12.769531 L 1.40625 5.230469 C 1.40625 3.121094 3.121094 1.40625 5.230469 1.40625 L 12.769531 1.40625 C 14.878906 1.40625 16.59375 3.121094 16.59375 5.230469 Z M 16.59375 12.769531 "/>
      <path  d="M 9 4.148438 C 6.324219 4.148438 4.148438 6.324219 4.148438 9 C 4.148438 11.675781 6.324219 13.851562 9 13.851562 C 11.675781 13.851562 13.851562 11.675781 13.851562 9 C 13.851562 6.324219 11.675781 4.148438 9 4.148438 Z M 9 12.445312 C 7.101562 12.445312 5.554688 10.898438 5.554688 9 C 5.554688 7.101562 7.101562 5.554688 9 5.554688 C 10.898438 5.554688 12.445312 7.101562 12.445312 9 C 12.445312 10.898438 10.898438 12.445312 9 12.445312 Z M 9 12.445312 "/>
      <path  d="M 14.625 4.078125 C 14.625 4.464844 14.308594 4.78125 13.921875 4.78125 C 13.535156 4.78125 13.21875 4.464844 13.21875 4.078125 C 13.21875 3.691406 13.535156 3.375 13.921875 3.375 C 14.308594 3.375 14.625 3.691406 14.625 4.078125 Z M 14.625 4.078125 "/>
    </g>
  </symbol>

</svg>

