<svg display="none"
  xmlns="http://www.w3.org/2000/svg">

  <symbol id="google-plus" viewBox="0 0 23 18">
    <g>
      <path d="M 5.835938 5.308594 C 7.054688 5.308594 8.15625 5.933594 8.789062 6.796875 L 10.285156 5.289062 C 9.390625 4.121094 7.667969 3.199219 5.835938 3.199219 C 2.628906 3.199219 0 5.792969 0 9 C 0 12.207031 2.628906 14.800781 5.835938 14.800781 C 8.492188 14.800781 10.730469 13.019531 11.414062 10.582031 C 11.5625 10.074219 11.636719 9.546875 11.636719 9 L 11.636719 8.472656 L 6.363281 8.472656 L 6.363281 10.582031 L 9.15625 10.582031 C 8.578125 11.828125 7.300781 12.691406 5.835938 12.691406 C 3.800781 12.691406 2.109375 11.035156 2.109375 9 C 2.109375 6.964844 3.800781 5.308594 5.835938 5.308594 Z M 5.835938 5.308594 "/>
      <path d="M 16.382812 6.363281 L 14.273438 6.363281 L 14.273438 7.945312 L 12.691406 7.945312 L 12.691406 10.054688 L 14.273438 10.054688 L 14.273438 11.636719 L 16.382812 11.636719 L 16.382812 10.054688 L 18 10.054688 L 18 7.945312 L 16.382812 7.945312 Z M 16.382812 6.363281 "/>
    </g>
  </symbol>

  <symbol id="instagram-icon" viewBox="0 0 18 18">
    <g >
      <path d="M 12.769531 0 L 5.230469 0 C 2.34375 0 0 2.34375 0 5.230469 L 0 12.769531 C 0 15.65625 2.34375 18 5.230469 18 L 12.769531 18 C 15.65625 18 18 15.65625 18 12.769531 L 18 5.230469 C 18 2.34375 15.65625 0 12.769531 0 Z M 16.59375 12.769531 C 16.59375 14.878906 14.878906 16.59375 12.769531 16.59375 L 5.230469 16.59375 C 3.121094 16.59375 1.40625 14.878906 1.40625 12.769531 L 1.40625 5.230469 C 1.40625 3.121094 3.121094 1.40625 5.230469 1.40625 L 12.769531 1.40625 C 14.878906 1.40625 16.59375 3.121094 16.59375 5.230469 Z M 16.59375 12.769531 "/>
      <path d="M 9 4.148438 C 6.324219 4.148438 4.148438 6.324219 4.148438 9 C 4.148438 11.675781 6.324219 13.851562 9 13.851562 C 11.675781 13.851562 13.851562 11.675781 13.851562 9 C 13.851562 6.324219 11.675781 4.148438 9 4.148438 Z M 9 12.445312 C 7.101562 12.445312 5.554688 10.898438 5.554688 9 C 5.554688 7.101562 7.101562 5.554688 9 5.554688 C 10.898438 5.554688 12.445312 7.101562 12.445312 9 C 12.445312 10.898438 10.898438 12.445312 9 12.445312 Z M 9 12.445312 "/>
      <path d="M 14.625 4.078125 C 14.625 4.464844 14.308594 4.78125 13.921875 4.78125 C 13.535156 4.78125 13.21875 4.464844 13.21875 4.078125 C 13.21875 3.691406 13.535156 3.375 13.921875 3.375 C 14.308594 3.375 14.625 3.691406 14.625 4.078125 Z M 14.625 4.078125 "/>
    </g>
  </symbol>

  <symbol id="icon-search" viewBox="0 0 15.281 15.281">
    <g>
      <path d="M3.7,6.076a0.613,0.613,0,0,1,.745.485,2.656,2.656,0,0,0,.78,1.489,3.044,3.044,0,0,0,1.494.777,0.634,0.634,0,0,1,.487.743,0.643,0.643,0,0,1-.714.515A4.117,4.117,0,0,1,3.215,6.818,0.608,0.608,0,0,1,3.7,6.076ZM6.98,0a6.257,6.257,0,0,1,5.711,8.861l2.336,2.036c1.7,1.746.745,3.266,0.293,3.717-0.421.454-1.993,1.414-3.731-.292l-2.059-2.35A6.261,6.261,0,1,1,6.98,0Zm5.546,13.517a1.355,1.355,0,0,0,1.881.226,1.312,1.312,0,0,0-.228-1.874l-2.161-1.88a6.269,6.269,0,0,1-1.363,1.34ZM6.98,11.2A4.948,4.948,0,1,0,2.015,6.253,4.958,4.958,0,0,0,6.98,11.2Z" transform="translate(-0.719)" />
    </g>
  </symbol>

  <symbol id="icon-heart" viewBox="0 0 15 15">
    <g>
      <path d="M 7.5 14.164062 C 7.285156 14.164062 7.082031 14.089844 6.921875 13.949219 C 6.3125 13.417969 5.730469 12.917969 5.214844 12.480469 L 5.210938 12.476562 C 3.699219 11.191406 2.394531 10.078125 1.488281 8.984375 C 0.472656 7.757812 0 6.597656 0 5.328125 C 0 4.097656 0.421875 2.957031 1.191406 2.125 C 1.964844 1.285156 3.03125 0.820312 4.191406 0.820312 C 5.054688 0.820312 5.847656 1.09375 6.546875 1.632812 C 6.898438 1.90625 7.21875 2.238281 7.5 2.628906 C 7.78125 2.238281 8.101562 1.90625 8.453125 1.632812 C 9.152344 1.09375 9.945312 0.820312 10.808594 0.820312 C 11.96875 0.820312 13.035156 1.285156 13.808594 2.125 C 14.578125 2.957031 15 4.097656 15 5.328125 C 15 6.597656 14.527344 7.757812 13.511719 8.984375 C 12.605469 10.078125 11.300781 11.191406 9.789062 12.476562 C 9.273438 12.917969 8.6875 13.417969 8.078125 13.949219 C 7.917969 14.089844 7.714844 14.164062 7.5 14.164062 Z M 4.191406 1.699219 C 3.28125 1.699219 2.445312 2.0625 1.835938 2.722656 C 1.21875 3.390625 0.878906 4.316406 0.878906 5.328125 C 0.878906 6.394531 1.273438 7.347656 2.164062 8.421875 C 3.023438 9.460938 4.300781 10.546875 5.78125 11.808594 L 5.785156 11.8125 C 6.300781 12.253906 6.886719 12.753906 7.5 13.285156 C 8.113281 12.75 8.699219 12.25 9.21875 11.808594 C 10.699219 10.546875 11.976562 9.460938 12.835938 8.421875 C 13.726562 7.347656 14.121094 6.394531 14.121094 5.328125 C 14.121094 4.316406 13.78125 3.390625 13.164062 2.722656 C 12.554688 2.0625 11.71875 1.699219 10.808594 1.699219 C 10.144531 1.699219 9.53125 1.910156 8.992188 2.328125 C 8.507812 2.703125 8.171875 3.171875 7.976562 3.503906 C 7.875 3.671875 7.695312 3.773438 7.5 3.773438 C 7.304688 3.773438 7.125 3.671875 7.023438 3.503906 C 6.828125 3.171875 6.492188 2.703125 6.007812 2.328125 C 5.46875 1.910156 4.855469 1.699219 4.191406 1.699219 Z M 4.191406 1.699219 "/>
    </g>
  </symbol>

  <symbol id="icon-basket" viewBox="0 0 18.938 16.969">
    <g>
      <path d="M5.526,16.978a2.073,2.073,0,0,1,0-4.147H5.533A2.073,2.073,0,0,1,5.526,16.978Zm0.006-2.963h0a0.884,0.884,0,1,0,.628.258,0.887,0.887,0,0,0-.628-0.258Zm8.386,2.963a2.073,2.073,0,0,1,0-4.147h0a1.936,1.936,0,0,1,1.468.6,2.076,2.076,0,0,1-.667,3.383A2.1,2.1,0,0,1,13.918,16.978Zm0.006-2.963h0a0.978,0.978,0,0,0-.823.548,0.888,0.888,0,1,0,1.449-.291A0.9,0.9,0,0,0,13.924,14.015Zm-11.279.164a0.584,0.584,0,0,1-.25-0.056,0.592,0.592,0,0,1-.286-0.787,3.681,3.681,0,0,1,3.054-2.151L4.108,5.793a0.592,0.592,0,1,1,1.163-.227l1.091,5.578h9.423l1.807-6.771H4.29A4.354,4.354,0,0,1,.007.68,0.592,0.592,0,1,1,1.178.505,3.165,3.165,0,0,0,4.293,3.187h14.07a0.594,0.594,0,0,1,.573.745l-2.123,7.956a0.594,0.594,0,0,1-.573.44H5.885a0.043,0.043,0,0,0-.023,0,2.655,2.655,0,0,0-2.68,1.51A0.593,0.593,0,0,1,2.645,14.178Z" />
    </g>
  </symbol>

  <symbol id="icon-menu" viewBox="0 0 20.031 20.031">
    <g>
      <path d="M2.146,4.881A2.146,2.146,0,1,1,4.292,2.735,2.144,2.144,0,0,1,2.146,4.881Zm0,7.869A2.146,2.146,0,1,1,4.292,10.6,2.145,2.145,0,0,1,2.146,12.75Zm0,7.868a2.146,2.146,0,1,1,2.146-2.146A2.144,2.144,0,0,1,2.146,20.618ZM10.014,4.881A2.146,2.146,0,1,1,12.16,2.735,2.144,2.144,0,0,1,10.014,4.881Zm0,7.869A2.146,2.146,0,1,1,12.16,10.6,2.145,2.145,0,0,1,10.014,12.75Zm0,7.868a2.146,2.146,0,1,1,2.146-2.146A2.144,2.144,0,0,1,10.014,20.618ZM17.883,4.881a2.146,2.146,0,1,1,2.146-2.146A2.144,2.144,0,0,1,17.883,4.881Zm0,7.869A2.146,2.146,0,1,1,20.029,10.6,2.145,2.145,0,0,1,17.883,12.75Zm0,7.868a2.146,2.146,0,1,1,2.146-2.146A2.144,2.144,0,0,1,17.883,20.618Z" transform="translate(0 -0.594)" />
    </g>
  </symbol>

</svg>

